<svg width="24" height="24" viewBox="0 0 24 24" fill="none" xmlns="http://www.w3.org/2000/svg">
<path d="M19.7502 15.05C19.3802 14.35 18.9202 13.67 18.5702 12.99C18.2285 12.3798 18.0333 11.6986 18.0002 11V9.21C18.002 7.69616 17.463 6.23147 16.4802 5.08C15.5912 4.02513 14.3592 3.31704 13.0002 3.08V3C13.0002 2.73478 12.8948 2.48043 12.7073 2.29289C12.5198 2.10536 12.2654 2 12.0002 2C11.735 2 11.4806 2.10536 11.2931 2.29289C11.1056 2.48043 11.0002 2.73478 11.0002 3V3.09C9.60314 3.32615 8.33473 4.04908 7.41959 5.13077C6.50445 6.21247 6.00164 7.58312 6.0002 9V11C5.9686 11.702 5.77341 12.3868 5.4302 13C5.0802 13.68 4.6202 14.36 4.2502 15.06C4.04696 15.4325 3.96746 15.86 4.02318 16.2806C4.07891 16.7013 4.26698 17.0933 4.5602 17.4C4.74779 17.5914 4.97192 17.7431 5.21929 17.8462C5.46666 17.9493 5.73222 18.0016 6.0002 18H9.0002C9.0002 18.7956 9.31627 19.5587 9.87888 20.1213C10.4415 20.6839 11.2046 21 12.0002 21C12.7959 21 13.5589 20.6839 14.1215 20.1213C14.6841 19.5587 15.0002 18.7956 15.0002 18H18.0002C18.2689 18.0003 18.5349 17.9464 18.7823 17.8416C19.0297 17.7368 19.2535 17.5832 19.4402 17.39C19.7334 17.0833 19.9215 16.6913 19.9772 16.2706C20.0329 15.85 19.9534 15.4225 19.7502 15.05ZM12.0002 19C11.735 19 11.4806 18.8946 11.2931 18.7071C11.1056 18.5196 11.0002 18.2652 11.0002 18H13.0002C13.0002 18.2652 12.8948 18.5196 12.7073 18.7071C12.5198 18.8946 12.2654 19 12.0002 19ZM6.0002 16C6.3002 15.44 6.7802 14.73 7.2002 13.9C7.69604 13.0117 7.97045 12.0169 8.0002 11V9C8.0002 7.93913 8.42163 6.92172 9.17178 6.17157C9.92192 5.42143 10.9393 5 12.0002 5H12.4002C12.903 5.04772 13.3915 5.19418 13.8377 5.43098C14.2838 5.66779 14.6789 5.99028 15.0002 6.38C15.6564 7.17612 16.0106 8.17833 16.0002 9.21V11C16.0285 12.0127 16.2994 13.0038 16.7902 13.89C17.2102 14.72 17.6902 15.43 17.9902 15.99H6.0002V16Z" fill="#131313"/>
</svg>
