<svg width="22" height="22" viewBox="0 0 22 22" fill="none" xmlns="http://www.w3.org/2000/svg">
<path d="M10.9998 4.50033C10.1428 4.50033 9.30498 4.75447 8.59237 5.23062C7.87976 5.70678 7.32434 6.38355 6.99636 7.17536C6.66838 7.96718 6.58257 8.83847 6.74977 9.67905C6.91697 10.5196 7.32968 11.2918 7.93571 11.8978C8.54174 12.5038 9.31387 12.9165 10.1545 13.0837C10.995 13.2509 11.8663 13.1651 12.6581 12.8371C13.45 12.5092 14.1267 11.9537 14.6029 11.2411C15.079 10.5285 15.3332 9.69071 15.3332 8.83366C15.3332 7.68439 14.8766 6.58219 14.064 5.76953C13.2513 4.95687 12.1491 4.50033 10.9998 4.50033ZM10.9998 11.0003C10.5713 11.0003 10.1524 10.8733 9.79611 10.6352C9.4398 10.3971 9.16209 10.0587 8.9981 9.66281C8.83411 9.2669 8.79121 8.83126 8.87481 8.41096C8.95841 7.99067 9.16476 7.60461 9.46778 7.30159C9.77079 6.99858 10.1569 6.79223 10.5771 6.70862C10.9974 6.62502 11.4331 6.66793 11.829 6.83192C12.2249 6.99591 12.5633 7.27362 12.8014 7.62992C13.0394 7.98623 13.1665 8.40513 13.1665 8.83366C13.1665 9.40829 12.9382 9.95939 12.5319 10.3657C12.1256 10.7721 11.5745 11.0003 10.9998 11.0003ZM10.9998 0.166992C8.85721 0.166992 6.7627 0.802356 4.98116 1.99274C3.19963 3.18312 1.8111 4.87506 0.991147 6.85459C0.171198 8.83412 -0.0433383 11.0123 0.374668 13.1138C0.792675 15.2153 1.82445 17.1456 3.33952 18.6607C4.85459 20.1757 6.7849 21.2075 8.88636 21.6255C10.9878 22.0435 13.166 21.829 15.1456 21.009C17.1251 20.1891 18.817 18.8005 20.0074 17.019C21.1978 15.2375 21.8332 13.143 21.8332 11.0003C21.8332 9.57767 21.553 8.16895 21.0085 6.85459C20.4641 5.54023 19.6661 4.34597 18.6602 3.34C17.6542 2.33403 16.4599 1.53606 15.1456 0.991631C13.8312 0.447205 12.4225 0.166992 10.9998 0.166992ZM6.66651 18.497V17.5003C6.66651 17.213 6.78064 16.9375 6.98381 16.7343C7.18697 16.5311 7.46252 16.417 7.74984 16.417H14.2498C14.5372 16.417 14.8127 16.5311 15.0159 16.7343C15.219 16.9375 15.3332 17.213 15.3332 17.5003V18.497C14.0175 19.263 12.5223 19.6666 10.9998 19.6666C9.47742 19.6666 7.98219 19.263 6.66651 18.497ZM17.424 16.7962C17.2637 16.0739 16.8618 15.4279 16.2846 14.965C15.7075 14.5021 14.9897 14.25 14.2498 14.2503H7.74984C7.01 14.25 6.29219 14.5021 5.71505 14.965C5.13791 15.4279 4.73597 16.0739 4.57568 16.7962C3.44965 15.5527 2.70871 14.0091 2.44277 12.3528C2.17683 10.6964 2.39731 8.99848 3.07747 7.46499C3.75763 5.93149 4.86823 4.62836 6.2745 3.7137C7.68077 2.79904 9.32228 2.31217 10.9998 2.31217C12.6774 2.31217 14.3189 2.79904 15.7252 3.7137C17.1315 4.62836 18.2421 5.93149 18.9222 7.46499C19.6024 8.99848 19.8229 10.6964 19.5569 12.3528C19.291 14.0091 18.55 15.5527 17.424 16.7962Z" fill="#070707"/>
</svg>
