<svg width="20" height="22" viewBox="0 0 20 22" fill="none" xmlns="http://www.w3.org/2000/svg">
<path d="M14.3333 11.0003C14.3333 11.2876 14.2192 11.5632 14.016 11.7664C13.8129 11.9695 13.5373 12.0837 13.25 12.0837H6.75C6.46268 12.0837 6.18713 11.9695 5.98397 11.7664C5.7808 11.5632 5.66667 11.2876 5.66667 11.0003C5.66667 10.713 5.7808 10.4375 5.98397 10.2343C6.18713 10.0311 6.46268 9.91699 6.75 9.91699H13.25C13.5373 9.91699 13.8129 10.0311 14.016 10.2343C14.2192 10.4375 14.3333 10.713 14.3333 11.0003ZM10 14.2503H6.75C6.46268 14.2503 6.18713 14.3645 5.98397 14.5676C5.7808 14.7708 5.66667 15.0463 5.66667 15.3337C5.66667 15.621 5.7808 15.8965 5.98397 16.0997C6.18713 16.3029 6.46268 16.417 6.75 16.417H10C10.2873 16.417 10.5629 16.3029 10.766 16.0997C10.9692 15.8965 11.0833 15.621 11.0833 15.3337C11.0833 15.0463 10.9692 14.7708 10.766 14.5676C10.5629 14.3645 10.2873 14.2503 10 14.2503ZM19.75 3.41699V18.5837C19.75 19.4456 19.4076 20.2723 18.7981 20.8818C18.1886 21.4913 17.362 21.8337 16.5 21.8337H3.5C2.63805 21.8337 1.8114 21.4913 1.2019 20.8818C0.59241 20.2723 0.25 19.4456 0.25 18.5837V3.41699C0.25 2.55504 0.59241 1.72839 1.2019 1.1189C1.8114 0.509402 2.63805 0.166992 3.5 0.166992H16.5C17.362 0.166992 18.1886 0.509402 18.7981 1.1189C19.4076 1.72839 19.75 2.55504 19.75 3.41699ZM12.1667 4.50033C12.454 4.50033 12.7295 4.38619 12.9327 4.18302C13.1359 3.97986 13.25 3.70431 13.25 3.41699V2.33366H6.75V3.41699C6.75 3.70431 6.86414 3.97986 7.0673 4.18302C7.27047 4.38619 7.54602 4.50033 7.83333 4.50033H12.1667ZM17.5833 3.41699C17.5833 3.12967 17.4692 2.85412 17.266 2.65096C17.0629 2.4478 16.7873 2.33366 16.5 2.33366H15.4167V3.41699C15.4167 4.27895 15.0743 5.1056 14.4648 5.71509C13.8553 6.32458 13.0286 6.66699 12.1667 6.66699H7.83333C6.97138 6.66699 6.14473 6.32458 5.53524 5.71509C4.92574 5.1056 4.58333 4.27895 4.58333 3.41699V2.33366H3.5C3.21268 2.33366 2.93713 2.4478 2.73397 2.65096C2.5308 2.85412 2.41667 3.12967 2.41667 3.41699V18.5837C2.41667 18.871 2.5308 19.1465 2.73397 19.3497C2.93713 19.5529 3.21268 19.667 3.5 19.667H16.5C16.7873 19.667 17.0629 19.5529 17.266 19.3497C17.4692 19.1465 17.5833 18.871 17.5833 18.5837V3.41699Z" fill="#070707"/>
</svg>
