<svg width="22" height="22" viewBox="0 0 22 22" fill="none" xmlns="http://www.w3.org/2000/svg">
<path d="M18.5832 0.166992H3.4165C2.55455 0.166992 1.7279 0.509402 1.11841 1.1189C0.508914 1.72839 0.166504 2.55504 0.166504 3.41699V18.5837C0.166504 19.4456 0.508914 20.2723 1.11841 20.8818C1.7279 21.4913 2.55455 21.8337 3.4165 21.8337H18.5832C19.4451 21.8337 20.2718 21.4913 20.8813 20.8818C21.4908 20.2723 21.8332 19.4456 21.8332 18.5837V3.41699C21.8332 2.55504 21.4908 1.72839 20.8813 1.1189C20.2718 0.509402 19.4451 0.166992 18.5832 0.166992ZM2.33317 8.83366H6.6665V13.167H2.33317V8.83366ZM8.83317 8.83366H19.6665V13.167H8.83317V8.83366ZM18.5832 2.33366C18.8705 2.33366 19.146 2.4478 19.3492 2.65096C19.5524 2.85412 19.6665 3.12967 19.6665 3.41699V6.66699H8.83317V2.33366H18.5832ZM3.4165 2.33366H6.6665V6.66699H2.33317V3.41699C2.33317 3.12967 2.44731 2.85412 2.65047 2.65096C2.85364 2.4478 3.12919 2.33366 3.4165 2.33366ZM2.33317 18.5837V15.3337H6.6665V19.667H3.4165C3.12919 19.667 2.85364 19.5529 2.65047 19.3497C2.44731 19.1465 2.33317 18.871 2.33317 18.5837ZM19.6665 18.5837C19.6665 18.871 19.5524 19.1465 19.3492 19.3497C19.146 19.5529 18.8705 19.667 18.5832 19.667H8.83317V15.3337H19.6665V18.5837Z" fill="#070707"/>
</svg>
