<svg width="20" height="20" viewBox="0 0 20 20" fill="none" xmlns="http://www.w3.org/2000/svg">
<path d="M5.66667 0.25H3.5C2.63805 0.25 1.8114 0.59241 1.2019 1.2019C0.59241 1.8114 0.25 2.63805 0.25 3.5V5.66667C0.25 6.52862 0.59241 7.35527 1.2019 7.96476C1.8114 8.57426 2.63805 8.91667 3.5 8.91667H5.66667C6.52862 8.91667 7.35527 8.57426 7.96476 7.96476C8.57426 7.35527 8.91667 6.52862 8.91667 5.66667V3.5C8.91667 2.63805 8.57426 1.8114 7.96476 1.2019C7.35527 0.59241 6.52862 0.25 5.66667 0.25ZM6.75 5.66667C6.75 5.95398 6.63586 6.22953 6.4327 6.4327C6.22953 6.63586 5.95398 6.75 5.66667 6.75H3.5C3.21268 6.75 2.93713 6.63586 2.73397 6.4327C2.5308 6.22953 2.41667 5.95398 2.41667 5.66667V3.5C2.41667 3.21268 2.5308 2.93713 2.73397 2.73397C2.93713 2.5308 3.21268 2.41667 3.5 2.41667H5.66667C5.95398 2.41667 6.22953 2.5308 6.4327 2.73397C6.63586 2.93713 6.75 3.21268 6.75 3.5V5.66667ZM5.66667 11.0833H3.5C2.63805 11.0833 1.8114 11.4257 1.2019 12.0352C0.59241 12.6447 0.25 13.4714 0.25 14.3333V16.5C0.25 17.362 0.59241 18.1886 1.2019 18.7981C1.8114 19.4076 2.63805 19.75 3.5 19.75H5.66667C6.52862 19.75 7.35527 19.4076 7.96476 18.7981C8.57426 18.1886 8.91667 17.362 8.91667 16.5V14.3333C8.91667 13.4714 8.57426 12.6447 7.96476 12.0352C7.35527 11.4257 6.52862 11.0833 5.66667 11.0833ZM6.75 16.5C6.75 16.7873 6.63586 17.0629 6.4327 17.266C6.22953 17.4692 5.95398 17.5833 5.66667 17.5833H3.5C3.21268 17.5833 2.93713 17.4692 2.73397 17.266C2.5308 17.0629 2.41667 16.7873 2.41667 16.5V14.3333C2.41667 14.046 2.5308 13.7705 2.73397 13.5673C2.93713 13.3641 3.21268 13.25 3.5 13.25H5.66667C5.95398 13.25 6.22953 13.3641 6.4327 13.5673C6.63586 13.7705 6.75 14.046 6.75 14.3333V16.5ZM16.5 0.25H14.3333C13.4714 0.25 12.6447 0.59241 12.0352 1.2019C11.4257 1.8114 11.0833 2.63805 11.0833 3.5V5.66667C11.0833 6.52862 11.4257 7.35527 12.0352 7.96476C12.6447 8.57426 13.4714 8.91667 14.3333 8.91667H16.5C17.362 8.91667 18.1886 8.57426 18.7981 7.96476C19.4076 7.35527 19.75 6.52862 19.75 5.66667V3.5C19.75 2.63805 19.4076 1.8114 18.7981 1.2019C18.1886 0.59241 17.362 0.25 16.5 0.25ZM17.5833 5.66667C17.5833 5.95398 17.4692 6.22953 17.266 6.4327C17.0629 6.63586 16.7873 6.75 16.5 6.75H14.3333C14.046 6.75 13.7705 6.63586 13.5673 6.4327C13.3641 6.22953 13.25 5.95398 13.25 5.66667V3.5C13.25 3.21268 13.3641 2.93713 13.5673 2.73397C13.7705 2.5308 14.046 2.41667 14.3333 2.41667H16.5C16.7873 2.41667 17.0629 2.5308 17.266 2.73397C17.4692 2.93713 17.5833 3.21268 17.5833 3.5V5.66667ZM16.5 11.0833H14.3333C13.4714 11.0833 12.6447 11.4257 12.0352 12.0352C11.4257 12.6447 11.0833 13.4714 11.0833 14.3333V16.5C11.0833 17.362 11.4257 18.1886 12.0352 18.7981C12.6447 19.4076 13.4714 19.75 14.3333 19.75H16.5C17.362 19.75 18.1886 19.4076 18.7981 18.7981C19.4076 18.1886 19.75 17.362 19.75 16.5V14.3333C19.75 13.4714 19.4076 12.6447 18.7981 12.0352C18.1886 11.4257 17.362 11.0833 16.5 11.0833ZM17.5833 16.5C17.5833 16.7873 17.4692 17.0629 17.266 17.266C17.0629 17.4692 16.7873 17.5833 16.5 17.5833H14.3333C14.046 17.5833 13.7705 17.4692 13.5673 17.266C13.3641 17.0629 13.25 16.7873 13.25 16.5V14.3333C13.25 14.046 13.3641 13.7705 13.5673 13.5673C13.7705 13.3641 14.046 13.25 14.3333 13.25H16.5C16.7873 13.25 17.0629 13.3641 17.266 13.5673C17.4692 13.7705 17.5833 14.046 17.5833 14.3333V16.5Z" fill="#070707"/>
</svg>
