<svg width="26" height="26" viewBox="0 0 26 26" fill="none" xmlns="http://www.w3.org/2000/svg">
<path d="M8.66667 3.25H6.5C5.63805 3.25 4.8114 3.59241 4.2019 4.2019C3.59241 4.8114 3.25 5.63805 3.25 6.5V8.66667C3.25 9.52862 3.59241 10.3553 4.2019 10.9648C4.8114 11.5743 5.63805 11.9167 6.5 11.9167H8.66667C9.52862 11.9167 10.3553 11.5743 10.9648 10.9648C11.5743 10.3553 11.9167 9.52862 11.9167 8.66667V6.5C11.9167 5.63805 11.5743 4.8114 10.9648 4.2019C10.3553 3.59241 9.52862 3.25 8.66667 3.25ZM9.75 8.66667C9.75 8.95398 9.63586 9.22953 9.4327 9.4327C9.22953 9.63586 8.95398 9.75 8.66667 9.75H6.5C6.21268 9.75 5.93713 9.63586 5.73397 9.4327C5.5308 9.22953 5.41667 8.95398 5.41667 8.66667V6.5C5.41667 6.21268 5.5308 5.93713 5.73397 5.73397C5.93713 5.5308 6.21268 5.41667 6.5 5.41667H8.66667C8.95398 5.41667 9.22953 5.5308 9.4327 5.73397C9.63586 5.93713 9.75 6.21268 9.75 6.5V8.66667ZM8.66667 14.0833H6.5C5.63805 14.0833 4.8114 14.4257 4.2019 15.0352C3.59241 15.6447 3.25 16.4714 3.25 17.3333V19.5C3.25 20.362 3.59241 21.1886 4.2019 21.7981C4.8114 22.4076 5.63805 22.75 6.5 22.75H8.66667C9.52862 22.75 10.3553 22.4076 10.9648 21.7981C11.5743 21.1886 11.9167 20.362 11.9167 19.5V17.3333C11.9167 16.4714 11.5743 15.6447 10.9648 15.0352C10.3553 14.4257 9.52862 14.0833 8.66667 14.0833ZM9.75 19.5C9.75 19.7873 9.63586 20.0629 9.4327 20.266C9.22953 20.4692 8.95398 20.5833 8.66667 20.5833H6.5C6.21268 20.5833 5.93713 20.4692 5.73397 20.266C5.5308 20.0629 5.41667 19.7873 5.41667 19.5V17.3333C5.41667 17.046 5.5308 16.7705 5.73397 16.5673C5.93713 16.3641 6.21268 16.25 6.5 16.25H8.66667C8.95398 16.25 9.22953 16.3641 9.4327 16.5673C9.63586 16.7705 9.75 17.046 9.75 17.3333V19.5ZM19.5 3.25H17.3333C16.4714 3.25 15.6447 3.59241 15.0352 4.2019C14.4257 4.8114 14.0833 5.63805 14.0833 6.5V8.66667C14.0833 9.52862 14.4257 10.3553 15.0352 10.9648C15.6447 11.5743 16.4714 11.9167 17.3333 11.9167H19.5C20.362 11.9167 21.1886 11.5743 21.7981 10.9648C22.4076 10.3553 22.75 9.52862 22.75 8.66667V6.5C22.75 5.63805 22.4076 4.8114 21.7981 4.2019C21.1886 3.59241 20.362 3.25 19.5 3.25ZM20.5833 8.66667C20.5833 8.95398 20.4692 9.22953 20.266 9.4327C20.0629 9.63586 19.7873 9.75 19.5 9.75H17.3333C17.046 9.75 16.7705 9.63586 16.5673 9.4327C16.3641 9.22953 16.25 8.95398 16.25 8.66667V6.5C16.25 6.21268 16.3641 5.93713 16.5673 5.73397C16.7705 5.5308 17.046 5.41667 17.3333 5.41667H19.5C19.7873 5.41667 20.0629 5.5308 20.266 5.73397C20.4692 5.93713 20.5833 6.21268 20.5833 6.5V8.66667ZM19.5 14.0833H17.3333C16.4714 14.0833 15.6447 14.4257 15.0352 15.0352C14.4257 15.6447 14.0833 16.4714 14.0833 17.3333V19.5C14.0833 20.362 14.4257 21.1886 15.0352 21.7981C15.6447 22.4076 16.4714 22.75 17.3333 22.75H19.5C20.362 22.75 21.1886 22.4076 21.7981 21.7981C22.4076 21.1886 22.75 20.362 22.75 19.5V17.3333C22.75 16.4714 22.4076 15.6447 21.7981 15.0352C21.1886 14.4257 20.362 14.0833 19.5 14.0833ZM20.5833 19.5C20.5833 19.7873 20.4692 20.0629 20.266 20.266C20.0629 20.4692 19.7873 20.5833 19.5 20.5833H17.3333C17.046 20.5833 16.7705 20.4692 16.5673 20.266C16.3641 20.0629 16.25 19.7873 16.25 19.5V17.3333C16.25 17.046 16.3641 16.7705 16.5673 16.5673C16.7705 16.3641 17.046 16.25 17.3333 16.25H19.5C19.7873 16.25 20.0629 16.3641 20.266 16.5673C20.4692 16.7705 20.5833 17.046 20.5833 17.3333V19.5Z" fill="#070707"/>
</svg>
