<svg width="24" height="24" viewBox="0 0 24 24" fill="none" xmlns="http://www.w3.org/2000/svg">
<path d="M20.0998 17.3501C20.0939 16.5666 19.7816 15.8165 19.2298 15.2601L18.9998 15.0001C18.1376 14.1381 16.9691 13.6527 15.7498 13.6501C15.0553 13.6554 14.3711 13.8196 13.7498 14.1301L12.8998 14.5501C12.1763 14.1997 11.5171 13.7298 10.9498 13.1601C10.3813 12.5752 9.91486 11.8992 9.56982 11.1601L9.98982 10.3101C10.3055 9.6903 10.4733 9.00571 10.4798 8.31014C10.4694 7.70149 10.3386 7.10093 10.0949 6.54311C9.85115 5.9853 9.49937 5.48128 9.05982 5.06014L8.77982 4.79014C8.21775 4.22737 7.45521 3.91084 6.65982 3.91014H5.81982C5.02417 3.91014 4.26111 4.22621 3.6985 4.78882C3.13589 5.35143 2.81982 6.11449 2.81982 6.91014V7.00014C2.85139 8.64057 3.10709 10.269 3.57982 11.8401C4.19458 13.8751 5.29247 15.7313 6.77982 17.2501C8.29332 18.7416 10.1464 19.8432 12.1798 20.4601C13.7497 20.9397 15.3786 21.1989 17.0198 21.2301H17.0898C17.8855 21.2301 18.6485 20.9141 19.2111 20.3515C19.7738 19.7888 20.0898 19.0258 20.0898 18.2301V17.3901L20.0998 17.3501ZM17.0998 19.2101C15.6482 19.1869 14.2072 18.9579 12.8198 18.5301C11.0942 18.009 9.51968 17.0794 8.22982 15.8201C6.97326 14.5299 6.04699 12.9553 5.52982 11.2301C5.1095 9.83793 4.88403 8.39421 4.85982 6.94014C4.85982 6.67492 4.96518 6.42057 5.15272 6.23303C5.34025 6.04549 5.59461 5.94014 5.85982 5.94014H6.69982C6.83143 5.93938 6.96189 5.9646 7.08373 6.01437C7.20557 6.06413 7.31638 6.13746 7.40982 6.23014L7.67982 6.50014C8.1447 6.98372 8.40295 7.62935 8.39982 8.30014C8.39989 8.70036 8.30386 9.09474 8.11982 9.45014L7.48982 10.7201C7.4304 10.8504 7.39965 10.9919 7.39965 11.1351C7.39965 11.2783 7.4304 11.4199 7.48982 11.5501C7.95186 12.6724 8.63161 13.692 9.48982 14.5501C10.3476 15.4088 11.3673 16.0886 12.4898 16.5501C12.6201 16.6096 12.7616 16.6403 12.9048 16.6403C13.048 16.6403 13.1895 16.6096 13.3198 16.5501L14.5898 15.9101C15.077 15.6621 15.6305 15.5759 16.17 15.6641C16.7095 15.7522 17.2069 16.01 17.5898 16.4001L17.8598 16.6801C18.0446 16.8664 18.1487 17.1178 18.1498 17.3801V18.2101C18.1501 18.3467 18.1224 18.4818 18.0684 18.6072C18.0144 18.7326 17.9354 18.8456 17.836 18.9393C17.7367 19.033 17.6193 19.1054 17.491 19.152C17.3626 19.1985 17.2261 19.2183 17.0898 19.2101H17.0998ZM12.4398 7.40014C12.4027 7.13758 12.4714 6.87104 12.6308 6.65913C12.7902 6.44723 13.0273 6.3073 13.2898 6.27014C13.4562 6.25714 13.6234 6.25714 13.7898 6.27014C14.2205 6.27622 14.6481 6.34356 15.0598 6.47014C15.6481 6.65791 16.1829 6.98373 16.6196 7.42039C17.0562 7.85704 17.3821 8.39185 17.5698 8.98014C17.6988 9.39101 17.7629 9.8195 17.7598 10.2501C17.7763 10.4164 17.7763 10.5839 17.7598 10.7501C17.724 11.0154 17.5843 11.2555 17.3715 11.4177C17.1586 11.5799 16.89 11.6509 16.6248 11.6151C16.3596 11.5793 16.1195 11.4396 15.9573 11.2268C15.795 11.0139 15.724 10.7454 15.7598 10.4801C15.7598 10.4801 15.7598 10.3801 15.7598 10.2501C15.7648 10.0227 15.731 9.79616 15.6598 9.58014C15.5739 9.29686 15.4194 9.03916 15.2101 8.82984C15.0008 8.62053 14.7431 8.46606 14.4598 8.38014C14.2429 8.3115 14.0173 8.27446 13.7898 8.27014C13.7166 8.26367 13.643 8.26367 13.5698 8.27014C13.4383 8.28836 13.3045 8.28022 13.1762 8.2462C13.0479 8.21218 12.9277 8.15295 12.8225 8.07197C12.7173 7.99099 12.6293 7.88988 12.5636 7.77453C12.4979 7.65919 12.4558 7.53191 12.4398 7.40014ZM21.6098 9.28014V9.42014C21.6098 9.68535 21.5045 9.93971 21.3169 10.1272C21.1294 10.3148 20.875 10.4201 20.6098 10.4201C20.3446 10.4201 20.0903 10.3148 19.9027 10.1272C19.7152 9.93971 19.6098 9.68535 19.6098 9.42014V9.32014C19.6063 8.83933 19.5356 8.36137 19.3998 7.90014C19.1821 7.11814 18.7685 6.40464 18.198 5.82717C17.6275 5.2497 16.9191 4.82736 16.1398 4.60014C15.6786 4.46432 15.2006 4.39364 14.7198 4.39014H14.6298C14.4985 4.39342 14.3678 4.3708 14.2452 4.32358C14.1227 4.27636 14.0106 4.20546 13.9154 4.11492C13.8202 4.02438 13.7438 3.91599 13.6905 3.79592C13.6372 3.67585 13.6081 3.54646 13.6048 3.41514C13.6015 3.28381 13.6242 3.15313 13.6714 3.03055C13.7186 2.90797 13.7895 2.79589 13.88 2.70071C13.9706 2.60553 14.079 2.52911 14.199 2.47582C14.3191 2.42254 14.4485 2.39342 14.5798 2.39014H14.7198C15.3975 2.3928 16.0712 2.49385 16.7198 2.69014C17.8116 3.00811 18.8055 3.59635 19.6095 4.40042C20.4136 5.20448 21.0018 6.19838 21.3198 7.29014C21.5132 7.93575 21.6109 8.6062 21.6098 9.28014Z" fill="#131313"/>
</svg>
