<svg width="26" height="26" viewBox="0 0 26 26" fill="none" xmlns="http://www.w3.org/2000/svg">
<path d="M20.5832 2.16699H5.4165C4.55455 2.16699 3.7279 2.5094 3.11841 3.1189C2.50891 3.72839 2.1665 4.55504 2.1665 5.41699V20.5837C2.1665 21.4456 2.50891 22.2723 3.11841 22.8818C3.7279 23.4913 4.55455 23.8337 5.4165 23.8337H20.5832C21.4451 23.8337 22.2718 23.4913 22.8813 22.8818C23.4908 22.2723 23.8332 21.4456 23.8332 20.5837V5.41699C23.8332 4.55504 23.4908 3.72839 22.8813 3.1189C22.2718 2.5094 21.4451 2.16699 20.5832 2.16699ZM4.33317 10.8337H8.6665V15.167H4.33317V10.8337ZM10.8332 10.8337H21.6665V15.167H10.8332V10.8337ZM20.5832 4.33366C20.8705 4.33366 21.146 4.4478 21.3492 4.65096C21.5524 4.85412 21.6665 5.12967 21.6665 5.41699V8.66699H10.8332V4.33366H20.5832ZM5.4165 4.33366H8.6665V8.66699H4.33317V5.41699C4.33317 5.12967 4.44731 4.85412 4.65047 4.65096C4.85364 4.4478 5.12919 4.33366 5.4165 4.33366ZM4.33317 20.5837V17.3337H8.6665V21.667H5.4165C5.12919 21.667 4.85364 21.5529 4.65047 21.3497C4.44731 21.1465 4.33317 20.871 4.33317 20.5837ZM21.6665 20.5837C21.6665 20.871 21.5524 21.1465 21.3492 21.3497C21.146 21.5529 20.8705 21.667 20.5832 21.667H10.8332V17.3337H21.6665V20.5837Z" fill="#070707"/>
</svg>
