<svg width="43" height="43" viewBox="0 0 43 43" fill="none" xmlns="http://www.w3.org/2000/svg">
<path d="M42.5 21.5C42.5 33.098 33.098 42.5 21.5 42.5C9.90202 42.5 0.5 33.098 0.5 21.5C0.5 9.90202 9.90202 0.5 21.5 0.5C33.098 0.5 42.5 9.90202 42.5 21.5Z" fill="white" stroke="#E20055"/>
<path d="M9.73328 21.2736C16.0003 18.5421 20.1795 16.7392 22.2709 15.8648C28.2422 13.3821 29.4835 12.9494 30.2922 12.9359C30.589 12.9293 30.8805 13.0164 31.1251 13.1847C31.2961 13.3335 31.4052 13.5409 31.4307 13.7661C31.474 14.0461 31.4858 14.33 31.4659 14.6126C31.1413 18.0121 29.7432 26.2632 29.0319 30.071C28.7317 31.6936 28.1367 32.2345 27.5634 32.2751C26.314 32.3887 25.3674 31.4502 24.1586 30.6524C22.2655 29.4111 21.1972 28.6404 19.361 27.4288C17.238 26.0306 18.6145 25.2653 19.8234 24.005C20.1398 23.6751 25.6406 18.6719 25.7488 18.2176C25.763 18.1506 25.7614 18.0813 25.744 18.015C25.7267 17.9488 25.694 17.8876 25.6487 17.8363C25.583 17.7945 25.5083 17.7687 25.4308 17.7612C25.3532 17.7537 25.275 17.7646 25.2025 17.793C25.0132 17.8363 21.9905 19.8339 16.1346 23.786C15.2764 24.3755 14.4993 24.6622 13.8034 24.646C13.0354 24.6297 11.5588 24.2133 10.4608 23.8563C9.10857 23.4182 8.04303 23.1883 8.13769 22.4446C8.18276 22.0696 8.71463 21.6792 9.73328 21.2736Z" fill="#E20055"/>
</svg>
