<svg width="43" height="43" viewBox="0 0 43 43" fill="none" xmlns="http://www.w3.org/2000/svg">
<rect x="0.5" y="0.5" width="42" height="42" rx="21" fill="white" stroke="#E20055"/>
<path fill-rule="evenodd" clip-rule="evenodd" d="M35.1754 14.8119C35.3748 14.1475 35.1754 13.6592 34.227 13.6592H31.0908C30.2934 13.6592 29.926 14.081 29.7266 14.5463C29.7266 14.5463 28.1317 18.4335 25.8723 20.9586C25.1413 21.6895 24.8091 21.9218 24.4104 21.9218C24.211 21.9218 23.9225 21.6895 23.9225 21.0251V14.8119C23.9225 14.0145 23.6911 13.6592 23.0265 13.6592H18.0982C17.6 13.6592 17.3003 14.0292 17.3003 14.38C17.3003 15.1361 18.4298 15.3104 18.5462 17.4367V22.0551C18.5462 23.0676 18.3635 23.2513 17.9647 23.2513C16.9016 23.2513 14.3156 19.3464 12.7816 14.8785C12.4809 14.01 12.1794 13.6592 11.3779 13.6592H8.24175C7.34571 13.6592 7.1665 14.081 7.1665 14.5463C7.1665 15.3769 8.22988 19.4969 12.1171 24.9457C14.7089 28.6665 18.3599 30.684 21.6824 30.684C23.6761 30.684 23.9225 30.236 23.9225 29.4642V26.6518C23.9225 25.7558 24.1113 25.577 24.7424 25.577C25.2079 25.577 26.0051 25.8095 27.866 27.6036C29.9923 29.7297 30.3426 30.684 31.5389 30.684H34.675C35.5711 30.684 36.0191 30.236 35.7606 29.3518C35.4779 28.4705 34.4626 27.1923 33.1154 25.6767C32.3845 24.8127 31.288 23.8824 30.956 23.4173C30.4907 22.8192 30.6236 22.5535 30.956 22.0222C30.956 22.0222 34.7767 16.6396 35.1754 14.8122V14.8119Z" fill="#E20055"/>
</svg>
